<?xml version="1.0" encoding="utf-8"?>
<!-- Generator: Adobe Illustrator 24.2.1, SVG Export Plug-In . SVG Version: 6.00 Build 0)  -->
<svg version="1.1" id="Layer_1" xmlns="http://www.w3.org/2000/svg" xmlns:xlink="http://www.w3.org/1999/xlink" x="0px" y="0px"
	 viewBox="0 0 1000 971.7" style="enable-background:new 0 0 1000 971.7;" xml:space="preserve">
<style type="text/css">
	.st0{fill-rule:evenodd;clip-rule:evenodd;fill:#FFFFFF;}
	.st1{fill-rule:evenodd;clip-rule:evenodd;fill:#00B2A7;}
	.st2{fill:#00B2A7;}
</style>
<path id="bubbla" class="st0" d="M620.6,4.9C726,20.2,916.9,102.4,983.8,334.3c66.9,259.3-90.5,431.6-171.8,498.2
	C648.4,966.7,466.2,965,361.4,969.9c-121,5.7-226.5-4-293.4-8.3c-11-0.7-119.4-4.8-37.6-59.8s90.8-126.5,91.8-185.5
	c-1.1-129.6-85.5-287.3,31.2-481C301.2-10,532-8.9,620.6,4.9z"/>
<g id="lime">
	<path class="st1" d="M652.1,320.5c6,0,11.1,1.8,15.3,5.3c4.3,3.5,7.1,8.7,8.4,15.4h-49.2c1.2-6.5,4.3-11.6,9.3-15.2
		C640.8,322.3,646.2,320.5,652.1,320.5z M693.9,347.7c-0.4-12.5-4.7-22.8-12.7-30.9c-8-8-17.7-12.1-29.1-12.1
		c-12.1,0-22.4,4.2-30.8,12.6c-8.4,8.4-12.6,19.2-12.6,32.4c0,13.1,4.2,23.8,12.6,32.2c8.4,8.3,18.4,12.5,30.1,12.5
		c9.4,0,17.7-2.3,24.7-6.8s12.2-11.1,15.6-19.9l-15.7-3.4c-4.8,9.8-13,14.7-24.6,14.7c-6.4,0-12-2.3-16.9-6.8
		c-4.8-4.6-7.6-10.7-8.4-18.3h67.8L693.9,347.7L693.9,347.7z M538.7,320.4c-2.7-4.9-6.5-8.7-11.4-11.5c-4.9-2.7-7.2-4.1-13.3-4.1
		c-11.5,0-18.8,4-25.2,12v-9.6h-17.5V392h17.5v-42.1c0-9.4,2-16.5,6-21.4s7.8-7.4,14.7-7.4c5.5,0,8.5,1.9,12,5.6s3.7,8.6,3.7,14.8
		V392h17.5v-42.1c0-9.4,0.4-16.5,4.5-21.4c4-4.9,8-7.4,15-7.4c5.5,0,8.5,1.9,12,5.6s5.3,8.6,5.3,14.8V392h17.4v-54
		c0-9.8-3.1-17.8-9.2-23.9c-6.1-6.2-12.1-9.2-20.9-9.2C553.3,304.8,546,310,538.7,320.4z M452.1,392v-84.8h-17.5V392H452.1z
		 M443.4,270.6c-3.3,0-6,1.1-8.1,3.3c-2.1,2.2-3.2,4.8-3.2,7.9c0,3.2,1.1,5.8,3.2,7.9s4.8,3.1,8.1,3.1c3.3,0,5.9-1,8-3.1
		s3.1-4.7,3.1-7.9c0-3.1-1.1-5.7-3.2-7.9C449.2,271.7,446.6,270.6,443.4,270.6z M415.6,392V281.6h-17.5V392H415.6z"/>
</g>
<g>
	<path id="f" class="st2" d="M286.5,496.1h-34.2v-7.9c0-9.9,6.6-15.6,16.1-15.6c3.6,0.1,7.2,0.8,10.6,2l8.4-30.7
		c-7.7-3.4-16.1-5.2-24.5-5.2c-30,0-50,18.6-50,47.8v9.7h-17.8v31.5h17.8v92.8h39.4v-92.9h34.2V496.1z"/>
	<path id="o" class="st2" d="M352.8,492.9c-37.6,0-68.8,26.2-68.8,65.3c0,39.4,31.2,65.6,68.8,65.6c36.9,0,68.1-26.2,68.1-65.6
		C420.8,519.1,389.7,492.9,352.8,492.9z M352.8,590.5c-16.1,0-30.7-12.6-30.7-32.2c0-19.3,14.6-32.2,30.7-32.2
		c15.3,0,29.9,12.9,29.9,32.2C382.7,577.8,368.1,590.4,352.8,590.5z"/>
	<path id="r" class="st2" d="M474.1,519.9v-23.8h-39.6v124.3h39.6v-38.9c0-32.2,15.1-46.5,42.8-46.5h7.2l1.7-39.6
		c-2.9-0.7-5.9-1.1-8.9-1C496.6,494.4,483,505,474.1,519.9z"/>
	<path id="m" class="st2" d="M696.6,492.4c-19.3,0-34.2,8.2-44.1,21c-8.4-13.6-23.2-21-40.6-21c-16.1,0-28.2,5.6-36.6,15.1v-11.4
		h-39.6v124.3h39.6v-60.9c0-20.8,9.4-31.4,23.8-31.4c11.9,0,21,8.9,21,23v69.3h39.6v-60.9c0-20.8,9.7-31.4,24.3-31.4
		c11.6,0,20.8,8.9,20.8,23v69.3h39.4v-77.7C744.1,512.4,723,492.4,696.6,492.4z"/>
	<path id="s" class="st2" d="M836.2,544.9l-29.2-5.9c-8-1.7-9.5-5.2-9.5-8.7c0-4.4,3.5-9.6,14.1-9.6c12.1,0,19.5,6.9,20.8,14.6
		l36.1-7.2c-5-21.5-25.5-35.6-56.4-35.6c-31.4,0-53.5,16.6-53.5,42.1c0,19.5,13.1,31.9,36.1,36.1l25.3,5c9.2,1.7,12.4,5,12.4,9.2
		c0,5.5-5.7,9.9-16.1,9.9c-10.6,0-20.3-3.9-22-14.6l-38.6,7.9c4.2,25.5,29.2,36.1,58.4,36.1c32.7,0,56.4-14.3,56.4-41.8
		C870.6,563.9,859.7,549.8,836.2,544.9z"/>
</g>
</svg>
